<svg xmlns="http://www.w3.org/2000/svg" version="1.1" xmlns:xlink="http://www.w3.org/1999/xlink" xmlns:svgjs="http://svgjs.com/svgjs" width="1440" height="560" preserveAspectRatio="none" viewBox="0 0 1440 560"><g mask="url(&quot;#SvgjsMask1018&quot;)" fill="none"><path d="M 0,74 C 57.6,101.8 172.8,223.8 288,213 C 403.2,202.2 460.8,8.4 576,20 C 691.2,31.6 748.8,256 864,271 C 979.2,286 1036.8,104.8 1152,95 C 1267.2,85.2 1382.4,196.6 1440,222L1440 560L0 560z" fill="rgba(227, 227, 227, .3)"></path><path d="M 0,448 C 96,436.2 288,378.4 480,389 C 672,399.6 768,509.8 960,501 C 1152,492.2 1344,376.2 1440,345L1440 560L0 560z" fill="rgba(40, 207, 178, 0.2)"></path></g><defs><mask id="SvgjsMask1018"><rect width="1440" height="560" fill="#ffffff"></rect></mask></defs></svg>